<mxfile host="app.diagrams.net" agent="Mozilla/5.0 (Windows NT 10.0; Win64; x64) AppleWebKit/537.36 (KHTML, like Gecko) Chrome/136.0.0.0 Safari/537.36 Edg/136.0.0.0" version="27.0.9">
  <diagram name="Page-1" id="OSfJfxYc9kgt25uPKAgM">
    <mxGraphModel dx="2058" dy="1116" grid="1" gridSize="10" guides="1" tooltips="1" connect="1" arrows="1" fold="1" page="1" pageScale="1" pageWidth="850" pageHeight="1100" math="0" shadow="0">
      <root>
        <mxCell id="0" />
        <mxCell id="1" parent="0" />
        <mxCell id="y3L6XF-IwYOdHK3edQS_-92" value="" style="group" parent="1" vertex="1" connectable="0">
          <mxGeometry x="10" y="150" width="825.38" height="487.73" as="geometry" />
        </mxCell>
        <mxCell id="y3L6XF-IwYOdHK3edQS_-54" value="" style="whiteSpace=wrap;html=1;gradientColor=none;fillColor=none;perimeterSpacing=10;dashed=1;dashPattern=8 8;strokeWidth=0.5;fontSize=14;" parent="y3L6XF-IwYOdHK3edQS_-92" vertex="1">
          <mxGeometry x="180.25798969696967" y="200.09435897435898" width="645.1220103030304" height="75.03538461538461" as="geometry" />
        </mxCell>
        <mxCell id="y3L6XF-IwYOdHK3edQS_-1" value="" style="whiteSpace=wrap;html=1;aspect=fixed;fillColor=#FF3333;" parent="y3L6XF-IwYOdHK3edQS_-92" vertex="1">
          <mxGeometry y="312.6474358974359" width="50.0230303030303" height="50.0230303030303" as="geometry" />
        </mxCell>
        <mxCell id="y3L6XF-IwYOdHK3edQS_-2" value="" style="whiteSpace=wrap;html=1;aspect=fixed;fillColor=#FF9933;" parent="y3L6XF-IwYOdHK3edQS_-92" vertex="1">
          <mxGeometry x="62.52878787878788" y="312.6474358974359" width="50.0230303030303" height="50.0230303030303" as="geometry" />
        </mxCell>
        <mxCell id="y3L6XF-IwYOdHK3edQS_-3" value="" style="whiteSpace=wrap;html=1;aspect=fixed;fillColor=#FFFF33;" parent="y3L6XF-IwYOdHK3edQS_-92" vertex="1">
          <mxGeometry x="125.05757575757576" y="312.6474358974359" width="50.0230303030303" height="50.0230303030303" as="geometry" />
        </mxCell>
        <mxCell id="y3L6XF-IwYOdHK3edQS_-5" value="" style="whiteSpace=wrap;html=1;aspect=fixed;fillColor=#99FF33;" parent="y3L6XF-IwYOdHK3edQS_-92" vertex="1">
          <mxGeometry y="375.1769230769231" width="50.0230303030303" height="50.0230303030303" as="geometry" />
        </mxCell>
        <mxCell id="y3L6XF-IwYOdHK3edQS_-6" value="" style="whiteSpace=wrap;html=1;aspect=fixed;fillColor=#33FF33;" parent="y3L6XF-IwYOdHK3edQS_-92" vertex="1">
          <mxGeometry x="62.52878787878788" y="375.1769230769231" width="50.0230303030303" height="50.0230303030303" as="geometry" />
        </mxCell>
        <mxCell id="y3L6XF-IwYOdHK3edQS_-48" style="edgeStyle=orthogonalEdgeStyle;rounded=0;orthogonalLoop=1;jettySize=auto;html=1;exitX=1;exitY=0.5;exitDx=0;exitDy=0;entryX=0;entryY=0.5;entryDx=0;entryDy=0;" parent="y3L6XF-IwYOdHK3edQS_-92" source="y3L6XF-IwYOdHK3edQS_-7" target="y3L6XF-IwYOdHK3edQS_-22" edge="1">
          <mxGeometry relative="1" as="geometry" />
        </mxCell>
        <mxCell id="y3L6XF-IwYOdHK3edQS_-7" value="" style="whiteSpace=wrap;html=1;aspect=fixed;fillColor=#33FF99;" parent="y3L6XF-IwYOdHK3edQS_-92" vertex="1">
          <mxGeometry x="125.05757575757576" y="375.1769230769231" width="50.0230303030303" height="50.0230303030303" as="geometry" />
        </mxCell>
        <mxCell id="y3L6XF-IwYOdHK3edQS_-8" value="" style="whiteSpace=wrap;html=1;aspect=fixed;fillColor=#33FFFF;" parent="y3L6XF-IwYOdHK3edQS_-92" vertex="1">
          <mxGeometry y="437.7064102564102" width="50.0230303030303" height="50.0230303030303" as="geometry" />
        </mxCell>
        <mxCell id="y3L6XF-IwYOdHK3edQS_-9" value="" style="whiteSpace=wrap;html=1;aspect=fixed;fillColor=#3399FF;" parent="y3L6XF-IwYOdHK3edQS_-92" vertex="1">
          <mxGeometry x="62.52878787878788" y="437.7064102564102" width="50.0230303030303" height="50.0230303030303" as="geometry" />
        </mxCell>
        <mxCell id="y3L6XF-IwYOdHK3edQS_-10" value="" style="whiteSpace=wrap;html=1;aspect=fixed;fillColor=#3333FF;" parent="y3L6XF-IwYOdHK3edQS_-92" vertex="1">
          <mxGeometry x="125.05757575757576" y="437.7064102564102" width="50.0230303030303" height="50.0230303030303" as="geometry" />
        </mxCell>
        <mxCell id="y3L6XF-IwYOdHK3edQS_-15" value="&lt;font face=&quot;Times New Roman&quot;&gt;CLS&lt;sub&gt;0&lt;/sub&gt;&lt;/font&gt;" style="whiteSpace=wrap;html=1;aspect=fixed;fontSize=14;" parent="y3L6XF-IwYOdHK3edQS_-92" vertex="1">
          <mxGeometry x="200.0921212121212" y="212.6002564102564" width="50.0230303030303" height="50.0230303030303" as="geometry" />
        </mxCell>
        <mxCell id="y3L6XF-IwYOdHK3edQS_-22" value="" style="whiteSpace=wrap;html=1;aspect=fixed;fillColor=#FF3333;" parent="y3L6XF-IwYOdHK3edQS_-92" vertex="1">
          <mxGeometry x="262.6209090909091" y="375.1769230769231" width="50.0230303030303" height="50.0230303030303" as="geometry" />
        </mxCell>
        <mxCell id="y3L6XF-IwYOdHK3edQS_-23" value="" style="whiteSpace=wrap;html=1;aspect=fixed;fillColor=#FF9933;" parent="y3L6XF-IwYOdHK3edQS_-92" vertex="1">
          <mxGeometry x="325.149696969697" y="375.1769230769231" width="50.0230303030303" height="50.0230303030303" as="geometry" />
        </mxCell>
        <mxCell id="y3L6XF-IwYOdHK3edQS_-24" value="" style="whiteSpace=wrap;html=1;aspect=fixed;fillColor=#FFFF33;" parent="y3L6XF-IwYOdHK3edQS_-92" vertex="1">
          <mxGeometry x="387.67848484848486" y="375.1769230769231" width="50.0230303030303" height="50.0230303030303" as="geometry" />
        </mxCell>
        <mxCell id="y3L6XF-IwYOdHK3edQS_-25" value="" style="whiteSpace=wrap;html=1;aspect=fixed;fillColor=#99FF33;" parent="y3L6XF-IwYOdHK3edQS_-92" vertex="1">
          <mxGeometry x="450.20727272727277" y="375.1769230769231" width="50.0230303030303" height="50.0230303030303" as="geometry" />
        </mxCell>
        <mxCell id="y3L6XF-IwYOdHK3edQS_-26" value="" style="whiteSpace=wrap;html=1;aspect=fixed;fillColor=#33FF33;" parent="y3L6XF-IwYOdHK3edQS_-92" vertex="1">
          <mxGeometry x="512.7360606060606" y="375.1769230769231" width="50.0230303030303" height="50.0230303030303" as="geometry" />
        </mxCell>
        <mxCell id="y3L6XF-IwYOdHK3edQS_-27" value="" style="whiteSpace=wrap;html=1;aspect=fixed;fillColor=#33FF99;" parent="y3L6XF-IwYOdHK3edQS_-92" vertex="1">
          <mxGeometry x="575.2648484848486" y="375.1769230769231" width="50.0230303030303" height="50.0230303030303" as="geometry" />
        </mxCell>
        <mxCell id="y3L6XF-IwYOdHK3edQS_-28" value="" style="whiteSpace=wrap;html=1;aspect=fixed;fillColor=#33FFFF;" parent="y3L6XF-IwYOdHK3edQS_-92" vertex="1">
          <mxGeometry x="637.7936363636364" y="375.1769230769231" width="50.0230303030303" height="50.0230303030303" as="geometry" />
        </mxCell>
        <mxCell id="y3L6XF-IwYOdHK3edQS_-29" value="" style="whiteSpace=wrap;html=1;aspect=fixed;fillColor=#3399FF;" parent="y3L6XF-IwYOdHK3edQS_-92" vertex="1">
          <mxGeometry x="700.3224242424243" y="375.1769230769231" width="50.0230303030303" height="50.0230303030303" as="geometry" />
        </mxCell>
        <mxCell id="y3L6XF-IwYOdHK3edQS_-30" value="" style="whiteSpace=wrap;html=1;aspect=fixed;fillColor=#3333FF;" parent="y3L6XF-IwYOdHK3edQS_-92" vertex="1">
          <mxGeometry x="762.8512121212123" y="375.1769230769231" width="50.0230303030303" height="50.0230303030303" as="geometry" />
        </mxCell>
        <mxCell id="y3L6XF-IwYOdHK3edQS_-31" value="&lt;font style=&quot;font-size: 18px;&quot; face=&quot;Times New Roman&quot;&gt;Linear Patch Flattening&lt;/font&gt;" style="rounded=0;whiteSpace=wrap;html=1;fillColor=#dae8fc;strokeColor=#6c8ebf;" parent="y3L6XF-IwYOdHK3edQS_-92" vertex="1">
          <mxGeometry x="262.6209090909091" y="287.635641025641" width="550.2533333333334" height="50.023589743589746" as="geometry" />
        </mxCell>
        <mxCell id="y3L6XF-IwYOdHK3edQS_-37" style="edgeStyle=orthogonalEdgeStyle;rounded=0;orthogonalLoop=1;jettySize=auto;html=1;exitX=0.5;exitY=0;exitDx=0;exitDy=0;entryX=0.046;entryY=1;entryDx=0;entryDy=0;entryPerimeter=0;" parent="y3L6XF-IwYOdHK3edQS_-92" source="y3L6XF-IwYOdHK3edQS_-22" target="y3L6XF-IwYOdHK3edQS_-31" edge="1">
          <mxGeometry relative="1" as="geometry" />
        </mxCell>
        <mxCell id="y3L6XF-IwYOdHK3edQS_-40" style="edgeStyle=orthogonalEdgeStyle;rounded=0;orthogonalLoop=1;jettySize=auto;html=1;exitX=0.5;exitY=0;exitDx=0;exitDy=0;entryX=0.046;entryY=1;entryDx=0;entryDy=0;entryPerimeter=0;" parent="y3L6XF-IwYOdHK3edQS_-92" edge="1">
          <mxGeometry relative="1" as="geometry">
            <mxPoint x="349.98613151515156" y="375.1769230769231" as="sourcePoint" />
            <mxPoint x="349.98613151515156" y="337.65923076923076" as="targetPoint" />
          </mxGeometry>
        </mxCell>
        <mxCell id="y3L6XF-IwYOdHK3edQS_-41" style="edgeStyle=orthogonalEdgeStyle;rounded=0;orthogonalLoop=1;jettySize=auto;html=1;exitX=0.5;exitY=0;exitDx=0;exitDy=0;entryX=0.046;entryY=1;entryDx=0;entryDy=0;entryPerimeter=0;" parent="y3L6XF-IwYOdHK3edQS_-92" edge="1">
          <mxGeometry relative="1" as="geometry">
            <mxPoint x="412.51491939393946" y="375.1769230769231" as="sourcePoint" />
            <mxPoint x="412.51491939393946" y="337.65923076923076" as="targetPoint" />
          </mxGeometry>
        </mxCell>
        <mxCell id="y3L6XF-IwYOdHK3edQS_-42" style="edgeStyle=orthogonalEdgeStyle;rounded=0;orthogonalLoop=1;jettySize=auto;html=1;exitX=0.5;exitY=0;exitDx=0;exitDy=0;entryX=0.046;entryY=1;entryDx=0;entryDy=0;entryPerimeter=0;" parent="y3L6XF-IwYOdHK3edQS_-92" edge="1">
          <mxGeometry relative="1" as="geometry">
            <mxPoint x="475.0437072727273" y="375.1769230769231" as="sourcePoint" />
            <mxPoint x="475.0437072727273" y="337.65923076923076" as="targetPoint" />
          </mxGeometry>
        </mxCell>
        <mxCell id="y3L6XF-IwYOdHK3edQS_-43" style="edgeStyle=orthogonalEdgeStyle;rounded=0;orthogonalLoop=1;jettySize=auto;html=1;exitX=0.5;exitY=0;exitDx=0;exitDy=0;entryX=0.046;entryY=1;entryDx=0;entryDy=0;entryPerimeter=0;" parent="y3L6XF-IwYOdHK3edQS_-92" edge="1">
          <mxGeometry relative="1" as="geometry">
            <mxPoint x="537.5724951515152" y="375.1769230769231" as="sourcePoint" />
            <mxPoint x="537.5724951515152" y="337.65923076923076" as="targetPoint" />
          </mxGeometry>
        </mxCell>
        <mxCell id="y3L6XF-IwYOdHK3edQS_-44" style="edgeStyle=orthogonalEdgeStyle;rounded=0;orthogonalLoop=1;jettySize=auto;html=1;exitX=0.5;exitY=0;exitDx=0;exitDy=0;entryX=0.046;entryY=1;entryDx=0;entryDy=0;entryPerimeter=0;" parent="y3L6XF-IwYOdHK3edQS_-92" edge="1">
          <mxGeometry relative="1" as="geometry">
            <mxPoint x="600.1012830303031" y="375.1769230769231" as="sourcePoint" />
            <mxPoint x="600.1012830303031" y="337.65923076923076" as="targetPoint" />
          </mxGeometry>
        </mxCell>
        <mxCell id="y3L6XF-IwYOdHK3edQS_-45" style="edgeStyle=orthogonalEdgeStyle;rounded=0;orthogonalLoop=1;jettySize=auto;html=1;exitX=0.5;exitY=0;exitDx=0;exitDy=0;entryX=0.046;entryY=1;entryDx=0;entryDy=0;entryPerimeter=0;" parent="y3L6XF-IwYOdHK3edQS_-92" edge="1">
          <mxGeometry relative="1" as="geometry">
            <mxPoint x="662.6300709090909" y="375.1769230769231" as="sourcePoint" />
            <mxPoint x="662.6300709090909" y="337.65923076923076" as="targetPoint" />
          </mxGeometry>
        </mxCell>
        <mxCell id="y3L6XF-IwYOdHK3edQS_-46" style="edgeStyle=orthogonalEdgeStyle;rounded=0;orthogonalLoop=1;jettySize=auto;html=1;exitX=0.5;exitY=0;exitDx=0;exitDy=0;entryX=0.046;entryY=1;entryDx=0;entryDy=0;entryPerimeter=0;" parent="y3L6XF-IwYOdHK3edQS_-92" edge="1">
          <mxGeometry relative="1" as="geometry">
            <mxPoint x="725.1213415151517" y="375.1769230769231" as="sourcePoint" />
            <mxPoint x="725.1213415151517" y="337.65923076923076" as="targetPoint" />
          </mxGeometry>
        </mxCell>
        <mxCell id="y3L6XF-IwYOdHK3edQS_-47" style="edgeStyle=orthogonalEdgeStyle;rounded=0;orthogonalLoop=1;jettySize=auto;html=1;exitX=0.5;exitY=0;exitDx=0;exitDy=0;entryX=0.046;entryY=1;entryDx=0;entryDy=0;entryPerimeter=0;" parent="y3L6XF-IwYOdHK3edQS_-92" edge="1">
          <mxGeometry relative="1" as="geometry">
            <mxPoint x="787.6501293939393" y="375.1769230769231" as="sourcePoint" />
            <mxPoint x="787.6501293939393" y="337.65923076923076" as="targetPoint" />
          </mxGeometry>
        </mxCell>
        <mxCell id="y3L6XF-IwYOdHK3edQS_-49" value="&lt;font style=&quot;font-size: 18px;&quot; face=&quot;Times New Roman&quot;&gt;Transformer (Multi Head Attention)&lt;/font&gt;" style="rounded=0;whiteSpace=wrap;html=1;fillColor=#f5f5f5;strokeColor=#666666;fontColor=#333333;" parent="y3L6XF-IwYOdHK3edQS_-92" vertex="1">
          <mxGeometry x="200.0921212121212" y="87.54128205128204" width="612.7821212121213" height="87.54128205128204" as="geometry" />
        </mxCell>
        <mxCell id="y3L6XF-IwYOdHK3edQS_-53" value="" style="group" parent="y3L6XF-IwYOdHK3edQS_-92" vertex="1" connectable="0">
          <mxGeometry x="95.04108681649234" y="212.6002564102564" width="60.38313909428803" height="50.023589743589746" as="geometry" />
        </mxCell>
        <mxCell id="y3L6XF-IwYOdHK3edQS_-50" value="" style="ellipse;whiteSpace=wrap;html=1;aspect=fixed;" parent="y3L6XF-IwYOdHK3edQS_-53" vertex="1">
          <mxGeometry x="5.180054395628868" width="50.0230303030303" height="50.0230303030303" as="geometry" />
        </mxCell>
        <mxCell id="y3L6XF-IwYOdHK3edQS_-51" value="" style="verticalLabelPosition=bottom;verticalAlign=top;html=1;shape=mxgraph.basic.arc;startAngle=0.3706995619472835;endAngle=0.876214899632002;rotation=135;" parent="y3L6XF-IwYOdHK3edQS_-53" vertex="1">
          <mxGeometry x="5.180054395628868" y="12.505897435897436" width="25.01151515151515" height="25.011794871794873" as="geometry" />
        </mxCell>
        <mxCell id="y3L6XF-IwYOdHK3edQS_-52" value="" style="verticalLabelPosition=bottom;verticalAlign=top;html=1;shape=mxgraph.basic.arc;startAngle=0.3706995619472835;endAngle=0.876214899632002;rotation=-45;" parent="y3L6XF-IwYOdHK3edQS_-53" vertex="1">
          <mxGeometry x="30.191569547144017" y="12.505897435897436" width="25.01151515151515" height="25.011794871794873" as="geometry" />
        </mxCell>
        <mxCell id="y3L6XF-IwYOdHK3edQS_-55" style="edgeStyle=orthogonalEdgeStyle;rounded=0;orthogonalLoop=1;jettySize=auto;html=1;entryX=0.018;entryY=0.5;entryDx=0;entryDy=0;entryPerimeter=0;" parent="y3L6XF-IwYOdHK3edQS_-92" source="y3L6XF-IwYOdHK3edQS_-50" target="y3L6XF-IwYOdHK3edQS_-54" edge="1">
          <mxGeometry relative="1" as="geometry" />
        </mxCell>
        <mxCell id="y3L6XF-IwYOdHK3edQS_-57" style="edgeStyle=orthogonalEdgeStyle;rounded=0;orthogonalLoop=1;jettySize=auto;html=1;exitX=0.5;exitY=0;exitDx=0;exitDy=0;entryX=0.041;entryY=1;entryDx=0;entryDy=0;entryPerimeter=0;" parent="y3L6XF-IwYOdHK3edQS_-92" edge="1">
          <mxGeometry relative="1" as="geometry">
            <mxPoint x="224.95356727272727" y="87.54128205128204" as="sourcePoint" />
            <mxPoint x="224.95356727272727" y="50.023589743589746" as="targetPoint" />
          </mxGeometry>
        </mxCell>
        <mxCell id="y3L6XF-IwYOdHK3edQS_-58" value="&lt;font face=&quot;Times New Roman&quot;&gt;&lt;b&gt;R&lt;/b&gt;&lt;sup&gt;D&lt;/sup&gt;&lt;/font&gt;" style="whiteSpace=wrap;html=1;aspect=fixed;fillColor=#fad7ac;gradientDirection=radial;strokeColor=#b46504;fontSize=14;" parent="y3L6XF-IwYOdHK3edQS_-92" vertex="1">
          <mxGeometry x="200.0921212121212" width="50.0230303030303" height="50.0230303030303" as="geometry" />
        </mxCell>
        <mxCell id="y3L6XF-IwYOdHK3edQS_-60" value="&lt;span style=&quot;color: rgb(51, 51, 51); font-family: &amp;quot;Times New Roman&amp;quot;; font-style: normal; font-variant-ligatures: normal; font-variant-caps: normal; letter-spacing: normal; orphans: 2; text-indent: 0px; text-transform: none; widows: 2; word-spacing: 0px; -webkit-text-stroke-width: 0px; white-space: normal; background-color: rgb(251, 251, 251); text-decoration-thickness: initial; text-decoration-style: initial; text-decoration-color: initial; float: none; display: inline !important;&quot;&gt;&lt;font style=&quot;font-size: 14px;&quot;&gt;&lt;b style=&quot;&quot;&gt;Positional Encoding&lt;/b&gt;&lt;/font&gt;&lt;/span&gt;" style="text;whiteSpace=wrap;html=1;align=center;" parent="y3L6XF-IwYOdHK3edQS_-92" vertex="1">
          <mxGeometry x="25.04" y="212.6" width="70" height="50.02" as="geometry" />
        </mxCell>
        <mxCell id="y3L6XF-IwYOdHK3edQS_-61" value="&lt;font face=&quot;Times New Roman&quot;&gt;P&lt;sub&gt;1&lt;/sub&gt;&lt;/font&gt;" style="whiteSpace=wrap;html=1;aspect=fixed;fontSize=14;" parent="y3L6XF-IwYOdHK3edQS_-92" vertex="1">
          <mxGeometry x="262.6209090909091" y="212.6002564102564" width="50.0230303030303" height="50.0230303030303" as="geometry" />
        </mxCell>
        <mxCell id="y3L6XF-IwYOdHK3edQS_-62" value="&lt;font face=&quot;Times New Roman&quot;&gt;P&lt;sub&gt;2&lt;/sub&gt;&lt;/font&gt;" style="whiteSpace=wrap;html=1;aspect=fixed;fontSize=14;" parent="y3L6XF-IwYOdHK3edQS_-92" vertex="1">
          <mxGeometry x="325.149696969697" y="212.6002564102564" width="50.0230303030303" height="50.0230303030303" as="geometry" />
        </mxCell>
        <mxCell id="y3L6XF-IwYOdHK3edQS_-63" value="&lt;font face=&quot;Times New Roman&quot;&gt;P&lt;sub&gt;3&lt;/sub&gt;&lt;/font&gt;" style="whiteSpace=wrap;html=1;aspect=fixed;fontSize=14;" parent="y3L6XF-IwYOdHK3edQS_-92" vertex="1">
          <mxGeometry x="387.67848484848486" y="212.6002564102564" width="50.0230303030303" height="50.0230303030303" as="geometry" />
        </mxCell>
        <mxCell id="y3L6XF-IwYOdHK3edQS_-64" value="&lt;font face=&quot;Times New Roman&quot;&gt;P&lt;sub&gt;4&lt;/sub&gt;&lt;/font&gt;" style="whiteSpace=wrap;html=1;aspect=fixed;fontSize=14;" parent="y3L6XF-IwYOdHK3edQS_-92" vertex="1">
          <mxGeometry x="450.20727272727277" y="212.6002564102564" width="50.0230303030303" height="50.0230303030303" as="geometry" />
        </mxCell>
        <mxCell id="y3L6XF-IwYOdHK3edQS_-65" value="&lt;font face=&quot;Times New Roman&quot;&gt;P&lt;sub&gt;5&lt;/sub&gt;&lt;/font&gt;" style="whiteSpace=wrap;html=1;aspect=fixed;fontSize=14;" parent="y3L6XF-IwYOdHK3edQS_-92" vertex="1">
          <mxGeometry x="512.7360606060606" y="212.6002564102564" width="50.0230303030303" height="50.0230303030303" as="geometry" />
        </mxCell>
        <mxCell id="y3L6XF-IwYOdHK3edQS_-66" value="&lt;font face=&quot;Times New Roman&quot;&gt;P&lt;sub&gt;6&lt;/sub&gt;&lt;/font&gt;" style="whiteSpace=wrap;html=1;aspect=fixed;fontSize=14;" parent="y3L6XF-IwYOdHK3edQS_-92" vertex="1">
          <mxGeometry x="575.2648484848486" y="212.6002564102564" width="50.0230303030303" height="50.0230303030303" as="geometry" />
        </mxCell>
        <mxCell id="y3L6XF-IwYOdHK3edQS_-67" value="&lt;font face=&quot;Times New Roman&quot;&gt;P&lt;sub&gt;7&lt;/sub&gt;&lt;/font&gt;" style="whiteSpace=wrap;html=1;aspect=fixed;fontSize=14;" parent="y3L6XF-IwYOdHK3edQS_-92" vertex="1">
          <mxGeometry x="637.7936363636364" y="212.6002564102564" width="50.0230303030303" height="50.0230303030303" as="geometry" />
        </mxCell>
        <mxCell id="y3L6XF-IwYOdHK3edQS_-68" value="&lt;font face=&quot;Times New Roman&quot;&gt;P&lt;sub&gt;8&lt;/sub&gt;&lt;/font&gt;" style="whiteSpace=wrap;html=1;aspect=fixed;fontSize=14;" parent="y3L6XF-IwYOdHK3edQS_-92" vertex="1">
          <mxGeometry x="700.3224242424243" y="212.6002564102564" width="50.0230303030303" height="50.0230303030303" as="geometry" />
        </mxCell>
        <mxCell id="y3L6XF-IwYOdHK3edQS_-69" value="&lt;font face=&quot;Times New Roman&quot;&gt;P&lt;sub&gt;9&lt;/sub&gt;&lt;/font&gt;" style="whiteSpace=wrap;html=1;aspect=fixed;fontSize=14;" parent="y3L6XF-IwYOdHK3edQS_-92" vertex="1">
          <mxGeometry x="762.8512121212123" y="212.6002564102564" width="50.0230303030303" height="50.0230303030303" as="geometry" />
        </mxCell>
        <mxCell id="y3L6XF-IwYOdHK3edQS_-71" style="edgeStyle=orthogonalEdgeStyle;rounded=0;orthogonalLoop=1;jettySize=auto;html=1;exitX=0.5;exitY=0;exitDx=0;exitDy=0;entryX=0.046;entryY=1;entryDx=0;entryDy=0;entryPerimeter=0;" parent="y3L6XF-IwYOdHK3edQS_-92" edge="1">
          <mxGeometry relative="1" as="geometry">
            <mxPoint x="224.95356727272727" y="212.6002564102564" as="sourcePoint" />
            <mxPoint x="224.95356727272727" y="175.08256410256408" as="targetPoint" />
          </mxGeometry>
        </mxCell>
        <mxCell id="y3L6XF-IwYOdHK3edQS_-72" style="edgeStyle=orthogonalEdgeStyle;rounded=0;orthogonalLoop=1;jettySize=auto;html=1;exitX=0.5;exitY=0;exitDx=0;exitDy=0;entryX=0.046;entryY=1;entryDx=0;entryDy=0;entryPerimeter=0;" parent="y3L6XF-IwYOdHK3edQS_-92" edge="1">
          <mxGeometry relative="1" as="geometry">
            <mxPoint x="287.48235515151515" y="212.6002564102564" as="sourcePoint" />
            <mxPoint x="287.48235515151515" y="175.08256410256408" as="targetPoint" />
          </mxGeometry>
        </mxCell>
        <mxCell id="y3L6XF-IwYOdHK3edQS_-73" style="edgeStyle=orthogonalEdgeStyle;rounded=0;orthogonalLoop=1;jettySize=auto;html=1;exitX=0.5;exitY=0;exitDx=0;exitDy=0;entryX=0.046;entryY=1;entryDx=0;entryDy=0;entryPerimeter=0;" parent="y3L6XF-IwYOdHK3edQS_-92" edge="1">
          <mxGeometry relative="1" as="geometry">
            <mxPoint x="350.011143030303" y="212.6002564102564" as="sourcePoint" />
            <mxPoint x="350.011143030303" y="175.08256410256408" as="targetPoint" />
          </mxGeometry>
        </mxCell>
        <mxCell id="y3L6XF-IwYOdHK3edQS_-74" style="edgeStyle=orthogonalEdgeStyle;rounded=0;orthogonalLoop=1;jettySize=auto;html=1;exitX=0.5;exitY=0;exitDx=0;exitDy=0;entryX=0.046;entryY=1;entryDx=0;entryDy=0;entryPerimeter=0;" parent="y3L6XF-IwYOdHK3edQS_-92" edge="1">
          <mxGeometry relative="1" as="geometry">
            <mxPoint x="412.5399309090909" y="212.6002564102564" as="sourcePoint" />
            <mxPoint x="412.5399309090909" y="175.08256410256408" as="targetPoint" />
          </mxGeometry>
        </mxCell>
        <mxCell id="y3L6XF-IwYOdHK3edQS_-75" style="edgeStyle=orthogonalEdgeStyle;rounded=0;orthogonalLoop=1;jettySize=auto;html=1;exitX=0.5;exitY=0;exitDx=0;exitDy=0;entryX=0.046;entryY=1;entryDx=0;entryDy=0;entryPerimeter=0;" parent="y3L6XF-IwYOdHK3edQS_-92" edge="1">
          <mxGeometry relative="1" as="geometry">
            <mxPoint x="475.0437072727273" y="212.6002564102564" as="sourcePoint" />
            <mxPoint x="475.0437072727273" y="175.08256410256408" as="targetPoint" />
          </mxGeometry>
        </mxCell>
        <mxCell id="y3L6XF-IwYOdHK3edQS_-76" style="edgeStyle=orthogonalEdgeStyle;rounded=0;orthogonalLoop=1;jettySize=auto;html=1;exitX=0.5;exitY=0;exitDx=0;exitDy=0;entryX=0.046;entryY=1;entryDx=0;entryDy=0;entryPerimeter=0;" parent="y3L6XF-IwYOdHK3edQS_-92" edge="1">
          <mxGeometry relative="1" as="geometry">
            <mxPoint x="537.5724951515152" y="212.6002564102564" as="sourcePoint" />
            <mxPoint x="537.5724951515152" y="175.08256410256408" as="targetPoint" />
          </mxGeometry>
        </mxCell>
        <mxCell id="y3L6XF-IwYOdHK3edQS_-77" style="edgeStyle=orthogonalEdgeStyle;rounded=0;orthogonalLoop=1;jettySize=auto;html=1;exitX=0.5;exitY=0;exitDx=0;exitDy=0;entryX=0.046;entryY=1;entryDx=0;entryDy=0;entryPerimeter=0;" parent="y3L6XF-IwYOdHK3edQS_-92" edge="1">
          <mxGeometry relative="1" as="geometry">
            <mxPoint x="600.1388003030303" y="212.6002564102564" as="sourcePoint" />
            <mxPoint x="600.1388003030303" y="175.08256410256408" as="targetPoint" />
          </mxGeometry>
        </mxCell>
        <mxCell id="y3L6XF-IwYOdHK3edQS_-78" style="edgeStyle=orthogonalEdgeStyle;rounded=0;orthogonalLoop=1;jettySize=auto;html=1;exitX=0.5;exitY=0;exitDx=0;exitDy=0;entryX=0.046;entryY=1;entryDx=0;entryDy=0;entryPerimeter=0;" parent="y3L6XF-IwYOdHK3edQS_-92" edge="1">
          <mxGeometry relative="1" as="geometry">
            <mxPoint x="662.6675881818181" y="212.6002564102564" as="sourcePoint" />
            <mxPoint x="662.6675881818181" y="175.08256410256408" as="targetPoint" />
          </mxGeometry>
        </mxCell>
        <mxCell id="y3L6XF-IwYOdHK3edQS_-79" style="edgeStyle=orthogonalEdgeStyle;rounded=0;orthogonalLoop=1;jettySize=auto;html=1;exitX=0.5;exitY=0;exitDx=0;exitDy=0;entryX=0.046;entryY=1;entryDx=0;entryDy=0;entryPerimeter=0;" parent="y3L6XF-IwYOdHK3edQS_-92" edge="1">
          <mxGeometry relative="1" as="geometry">
            <mxPoint x="725.1963760606061" y="212.6002564102564" as="sourcePoint" />
            <mxPoint x="725.1963760606061" y="175.08256410256408" as="targetPoint" />
          </mxGeometry>
        </mxCell>
        <mxCell id="y3L6XF-IwYOdHK3edQS_-80" style="edgeStyle=orthogonalEdgeStyle;rounded=0;orthogonalLoop=1;jettySize=auto;html=1;exitX=0.5;exitY=0;exitDx=0;exitDy=0;entryX=0.046;entryY=1;entryDx=0;entryDy=0;entryPerimeter=0;" parent="y3L6XF-IwYOdHK3edQS_-92" edge="1">
          <mxGeometry relative="1" as="geometry">
            <mxPoint x="787.725163939394" y="212.6002564102564" as="sourcePoint" />
            <mxPoint x="787.725163939394" y="175.08256410256408" as="targetPoint" />
          </mxGeometry>
        </mxCell>
        <mxCell id="y3L6XF-IwYOdHK3edQS_-82" value="" style="endArrow=none;html=1;rounded=0;fontSize=14;" parent="y3L6XF-IwYOdHK3edQS_-92" edge="1">
          <mxGeometry width="50" height="50" relative="1" as="geometry">
            <mxPoint x="287.4948609090909" y="287.635641025641" as="sourcePoint" />
            <mxPoint x="287.4948609090909" y="262.62384615384616" as="targetPoint" />
          </mxGeometry>
        </mxCell>
        <mxCell id="y3L6XF-IwYOdHK3edQS_-84" value="" style="endArrow=none;html=1;rounded=0;fontSize=14;" parent="y3L6XF-IwYOdHK3edQS_-92" edge="1">
          <mxGeometry width="50" height="50" relative="1" as="geometry">
            <mxPoint x="350.02364878787876" y="287.635641025641" as="sourcePoint" />
            <mxPoint x="350.02364878787876" y="262.62384615384616" as="targetPoint" />
          </mxGeometry>
        </mxCell>
        <mxCell id="y3L6XF-IwYOdHK3edQS_-85" value="" style="endArrow=none;html=1;rounded=0;fontSize=14;" parent="y3L6XF-IwYOdHK3edQS_-92" edge="1">
          <mxGeometry width="50" height="50" relative="1" as="geometry">
            <mxPoint x="412.55243666666667" y="287.635641025641" as="sourcePoint" />
            <mxPoint x="412.55243666666667" y="262.62384615384616" as="targetPoint" />
          </mxGeometry>
        </mxCell>
        <mxCell id="y3L6XF-IwYOdHK3edQS_-86" value="" style="endArrow=none;html=1;rounded=0;fontSize=14;" parent="y3L6XF-IwYOdHK3edQS_-92" edge="1">
          <mxGeometry width="50" height="50" relative="1" as="geometry">
            <mxPoint x="475.0812245454545" y="287.635641025641" as="sourcePoint" />
            <mxPoint x="475.0812245454545" y="262.62384615384616" as="targetPoint" />
          </mxGeometry>
        </mxCell>
        <mxCell id="y3L6XF-IwYOdHK3edQS_-87" value="" style="endArrow=none;html=1;rounded=0;fontSize=14;" parent="y3L6XF-IwYOdHK3edQS_-92" edge="1">
          <mxGeometry width="50" height="50" relative="1" as="geometry">
            <mxPoint x="537.4474375757576" y="287.635641025641" as="sourcePoint" />
            <mxPoint x="537.4474375757576" y="262.62384615384616" as="targetPoint" />
          </mxGeometry>
        </mxCell>
        <mxCell id="y3L6XF-IwYOdHK3edQS_-88" value="" style="endArrow=none;html=1;rounded=0;fontSize=14;" parent="y3L6XF-IwYOdHK3edQS_-92" edge="1">
          <mxGeometry width="50" height="50" relative="1" as="geometry">
            <mxPoint x="600.1388003030303" y="287.635641025641" as="sourcePoint" />
            <mxPoint x="600.1388003030303" y="262.62384615384616" as="targetPoint" />
          </mxGeometry>
        </mxCell>
        <mxCell id="y3L6XF-IwYOdHK3edQS_-89" value="" style="endArrow=none;html=1;rounded=0;fontSize=14;" parent="y3L6XF-IwYOdHK3edQS_-92" edge="1">
          <mxGeometry width="50" height="50" relative="1" as="geometry">
            <mxPoint x="662.6675881818181" y="287.635641025641" as="sourcePoint" />
            <mxPoint x="662.6675881818181" y="262.62384615384616" as="targetPoint" />
          </mxGeometry>
        </mxCell>
        <mxCell id="y3L6XF-IwYOdHK3edQS_-90" value="" style="endArrow=none;html=1;rounded=0;fontSize=14;" parent="y3L6XF-IwYOdHK3edQS_-92" edge="1">
          <mxGeometry width="50" height="50" relative="1" as="geometry">
            <mxPoint x="725.1963760606061" y="287.635641025641" as="sourcePoint" />
            <mxPoint x="725.1963760606061" y="262.62384615384616" as="targetPoint" />
          </mxGeometry>
        </mxCell>
        <mxCell id="y3L6XF-IwYOdHK3edQS_-91" value="" style="endArrow=none;html=1;rounded=0;fontSize=14;" parent="y3L6XF-IwYOdHK3edQS_-92" edge="1">
          <mxGeometry width="50" height="50" relative="1" as="geometry">
            <mxPoint x="787.725163939394" y="287.635641025641" as="sourcePoint" />
            <mxPoint x="787.725163939394" y="262.62384615384616" as="targetPoint" />
          </mxGeometry>
        </mxCell>
      </root>
    </mxGraphModel>
  </diagram>
</mxfile>
